<svg width="515" height="515" viewBox="0 0 515 515" fill="none" xmlns="http://www.w3.org/2000/svg">
<g clip-path="url(#clip0)">
<path d="M509.218 5.953C505.974 2.998 501.699 1.435 497.314 1.601C425.103 8.852 357.942 41.944 308.194 94.785C302.242 101.316 302.711 111.436 309.242 117.388C309.381 117.515 309.522 117.639 309.666 117.761L477.346 260.193C480.44 262.859 484.366 264.364 488.45 264.449C490.492 264.45 492.511 264.013 494.37 263.169C499.961 260.821 503.595 255.345 503.586 249.281C514.114 147.553 514.242 18.881 514.242 17.569C514.235 13.171 512.418 8.97 509.218 5.953Z" fill="#FFA000"/>
<path d="M16.93 1.601C12.554 1.492 8.29995 3.047 5.02595 5.953C1.81795 8.978 -4.52267e-05 13.192 0.00195477 17.601C0.00195477 18.881 0.00195503 147.585 10.562 247.681V248.001C10.559 256.838 17.72 264.004 26.556 264.007C30.357 264.008 34.035 262.656 36.93 260.193L204.61 117.793C211.339 112.065 212.15 101.967 206.422 95.238C206.301 95.095 206.177 94.955 206.05 94.817C156.304 41.969 89.144 8.866 16.93 1.601Z" fill="#FFA000"/>
<path d="M256.002 81.601C119.618 81.601 0.00211732 186.273 0.00211732 305.601V336.769C-0.154883 363.812 9.56212 389.982 27.3301 410.369C138.816 536.661 331.573 548.664 457.865 437.178C467.349 428.806 476.302 419.853 484.674 410.369C502.432 389.976 512.147 363.809 512.002 336.769V305.601C512.002 186.273 392.386 81.601 256.002 81.601Z" fill="#FFCA28"/>
<path d="M192.322 89.537L256.002 161.601L321.186 89.889C278.942 78.959 234.626 78.838 192.322 89.537Z" fill="#FFA000"/>
<path d="M160.002 289.601C177.675 289.601 192.002 275.274 192.002 257.601C192.002 239.928 177.675 225.601 160.002 225.601C142.329 225.601 128.002 239.928 128.002 257.601C128.002 275.274 142.329 289.601 160.002 289.601Z" fill="#FAFAFA"/>
<path d="M352.002 289.601C369.675 289.601 384.002 275.274 384.002 257.601C384.002 239.928 369.675 225.601 352.002 225.601C334.329 225.601 320.002 239.928 320.002 257.601C320.002 275.274 334.329 289.601 352.002 289.601Z" fill="#FAFAFA"/>
<path d="M348.514 359.617C345.476 355.812 340.871 353.598 336.002 353.601H176.002C167.165 353.601 160.002 360.764 160.001 369.6C160.001 370.774 160.13 371.944 160.386 373.089C172.292 425.896 224.752 459.053 277.559 447.148C314.471 438.826 343.296 410.001 351.618 373.089C352.677 368.36 351.536 363.406 348.514 359.617Z" fill="#F44336"/>
<path d="M256.002 513.601C168.513 513.583 85.24 476.013 27.33 410.433C9.548 390.03 -0.169999 363.834 0.00200054 336.769V305.601C0.00200054 186.273 119.618 81.601 256.002 81.601C392.386 81.601 512.002 186.273 512.002 305.601V336.769C512.159 363.812 502.442 389.982 484.674 410.369C426.776 475.973 343.501 513.567 256.002 513.601ZM256.002 113.601C136.674 113.601 32.002 203.201 32.002 305.601V336.769C31.789 356.018 38.617 374.682 51.202 389.249C150.945 502.286 323.437 513.063 436.474 413.321C444.991 405.806 453.03 397.766 460.546 389.249C473.131 374.682 479.959 356.018 479.746 336.769V305.601C480.002 203.201 375.33 113.601 256.002 113.601Z" fill="black"/>
<path d="M487.65 264.673C478.676 264.378 471.576 256.979 471.65 248.001C479.746 168.929 481.634 74.913 482.05 35.905C424.592 45.933 371.871 74.144 331.65 116.385L255.778 201.921L182.082 116.001C141.99 73.827 89.3519 45.723 32.002 35.873C32.45 74.753 34.338 168.513 42.37 246.049C42.45 255.085 35.394 262.578 26.37 263.041C18.006 263.501 10.852 257.093 10.392 248.728C10.379 248.486 10.371 248.243 10.37 248.001V247.681C0.00195312 147.585 0.00195312 18.881 0.00195312 17.601V0.640999L16.93 1.601C89.135 8.874 156.288 41.963 206.05 94.785L256.226 153.281L308.034 94.977C357.817 42.064 425.031 8.905 497.314 1.601L514.242 0.640999V17.601C514.242 18.881 514.242 147.585 503.618 249.345C503.57 257.863 496.626 264.73 488.108 264.682C487.955 264.682 487.803 264.678 487.65 264.673Z" fill="black"/>
<path d="M144.002 305.601C117.492 305.601 96.002 284.111 96.002 257.601C96.002 231.091 117.492 209.601 144.002 209.601C170.512 209.601 192.002 231.091 192.002 257.601C192.002 284.111 170.512 305.601 144.002 305.601ZM144.002 241.601C135.165 241.601 128.002 248.764 128.002 257.601C128.002 266.438 135.165 273.601 144.002 273.601C152.839 273.601 160.002 266.438 160.002 257.601C160.002 248.765 152.839 241.601 144.002 241.601Z" fill="black"/>
<path d="M368.002 305.601C341.492 305.601 320.002 284.111 320.002 257.601C320.002 231.091 341.492 209.601 368.002 209.601C394.512 209.601 416.002 231.091 416.002 257.601C416.002 284.111 394.512 305.601 368.002 305.601ZM368.002 241.601C359.165 241.601 352.002 248.764 352.002 257.601C352.002 266.438 359.165 273.601 368.002 273.601C376.839 273.601 384.002 266.438 384.002 257.601C384.002 248.765 376.839 241.601 368.002 241.601Z" fill="black"/>
<path d="M256.002 449.601C210.087 449.801 170.259 417.93 160.386 373.089C158.46 364.465 163.889 355.912 172.513 353.986C173.658 353.73 174.828 353.601 176.002 353.601H336.002C344.839 353.601 352.002 360.764 352.003 369.6C352.003 370.774 351.874 371.944 351.618 373.089C341.745 417.93 301.917 449.801 256.002 449.601ZM199.362 385.601C218.194 416.882 258.819 426.975 290.1 408.143C299.34 402.58 307.079 394.841 312.642 385.601H199.362Z" fill="black"/>
</g>
<defs>
<clipPath id="clip0">
<rect width="514.242" height="514.242" fill="white"/>
</clipPath>
</defs>
</svg>
