<svg width="512" height="512" viewBox="0 0 512 512" fill="none" xmlns="http://www.w3.org/2000/svg">
<g clip-path="url(#clip0)">
<path d="M501.333 96H10.667C4.776 96 0 100.776 0 106.667V405.334C0 411.224 4.776 416 10.667 416H74.667C80.558 416 85.334 411.224 85.334 405.333C85.442 403.47 86.054 401.67 87.105 400.128C89.111 396.763 89.111 392.57 87.105 389.205C86.054 387.662 85.442 385.863 85.334 384C85.334 378.109 90.11 373.333 96.001 373.333C101.892 373.333 106.668 378.109 106.668 384C106.56 385.863 105.948 387.663 104.897 389.205C102.891 392.57 102.891 396.763 104.897 400.128C105.948 401.671 106.56 403.47 106.668 405.333C106.668 411.224 111.444 416 117.335 416H181.335C187.226 416 192.002 411.224 192.002 405.333C192.11 403.47 192.722 401.67 193.773 400.128C195.779 396.763 195.779 392.57 193.773 389.205C192.722 387.662 192.11 385.863 192.002 384C192.002 378.109 196.778 373.333 202.669 373.333C208.56 373.333 213.336 378.109 213.336 384C213.228 385.863 212.616 387.663 211.565 389.205C209.559 392.57 209.559 396.763 211.565 400.128C212.616 401.671 213.228 403.47 213.336 405.333C213.336 411.224 218.112 416 224.003 416H288.003C293.894 416 298.67 411.224 298.67 405.333C298.778 403.47 299.39 401.67 300.441 400.128C302.447 396.763 302.447 392.57 300.441 389.205C299.39 387.662 298.778 385.863 298.67 384C298.67 378.109 303.446 373.333 309.337 373.333C315.228 373.333 320 378.109 320 384C319.892 385.863 319.28 387.663 318.229 389.205C316.223 392.57 316.223 396.763 318.229 400.128C319.28 401.671 319.892 403.47 320 405.333C320 411.224 324.776 416 330.667 416H394.667C400.558 416 405.334 411.224 405.334 405.333C405.442 403.47 406.054 401.67 407.105 400.128C409.111 396.763 409.111 392.57 407.105 389.205C406.054 387.662 405.442 385.863 405.334 384C405.334 378.109 410.11 373.333 416.001 373.333C421.892 373.333 426.668 378.109 426.668 384C426.56 385.863 425.948 387.663 424.897 389.205C422.891 392.57 422.891 396.763 424.897 400.128C425.948 401.671 426.56 403.47 426.668 405.333C426.668 411.224 431.444 416 437.335 416H501.335C507.226 416 512.002 411.224 512.002 405.333V106.667C512 100.776 507.224 96 501.333 96Z" fill="#2196F3"/>
<path d="M138.667 234.667C162.231 234.667 181.334 215.564 181.334 192C181.334 168.436 162.231 149.333 138.667 149.333C115.103 149.333 96 168.436 96 192C96 215.564 115.103 234.667 138.667 234.667Z" fill="#FAFAFA"/>
<path d="M224 320C224 272.872 185.795 234.667 138.667 234.667C91.539 234.667 53.333 272.872 53.333 320H224Z" fill="#FAFAFA"/>
<path d="M458.667 181.333H288C282.109 181.333 277.333 176.557 277.333 170.666C277.333 164.775 282.109 160 288 160H458.667C464.558 160 469.334 164.776 469.334 170.667C469.334 176.558 464.558 181.333 458.667 181.333Z" fill="#90CAF9"/>
<path d="M394.667 245.333H288C282.109 245.333 277.333 240.557 277.333 234.666C277.333 228.775 282.109 224 288 224H394.667C400.558 224 405.334 228.776 405.334 234.667C405.334 240.558 400.558 245.333 394.667 245.333Z" fill="#90CAF9"/>
<path d="M458.667 309.333H288C282.109 309.333 277.333 304.557 277.333 298.666C277.333 292.775 282.109 287.999 288 287.999H458.667C464.558 287.999 469.334 292.775 469.334 298.666C469.333 304.558 464.558 309.333 458.667 309.333Z" fill="#90CAF9"/>
<path d="M138.667 245.333C109.212 245.333 85.334 221.455 85.334 192C85.334 162.545 109.212 138.667 138.667 138.667C168.122 138.667 192 162.545 192 192C192 221.455 168.122 245.333 138.667 245.333ZM138.667 160C120.994 160 106.667 174.327 106.667 192C106.667 209.673 120.994 224 138.667 224C156.34 224 170.667 209.673 170.667 192C170.667 174.327 156.34 160 138.667 160Z" fill="black"/>
<path d="M224 330.667H53.333C47.442 330.667 42.666 325.891 42.666 320C42.666 266.981 85.647 224 138.666 224C191.685 224 234.666 266.981 234.666 320C234.667 325.891 229.891 330.667 224 330.667ZM64.768 309.333H212.565C206.707 268.514 168.867 240.173 128.048 246.031C95.235 250.74 69.456 276.52 64.746 309.333H64.768Z" fill="black"/>
<path d="M458.667 181.333H288C282.109 181.333 277.333 176.557 277.333 170.666C277.333 164.775 282.109 160 288 160H458.667C464.558 160 469.334 164.776 469.334 170.667C469.334 176.558 464.558 181.333 458.667 181.333Z" fill="black"/>
<path d="M394.667 245.333H288C282.109 245.333 277.333 240.557 277.333 234.666C277.333 228.775 282.109 224 288 224H394.667C400.558 224 405.334 228.776 405.334 234.667C405.334 240.558 400.558 245.333 394.667 245.333Z" fill="black"/>
<path d="M458.667 309.333H288C282.109 309.333 277.333 304.557 277.333 298.666C277.333 292.775 282.109 287.999 288 287.999H458.667C464.558 287.999 469.334 292.775 469.334 298.666C469.333 304.558 464.558 309.333 458.667 309.333Z" fill="black"/>
<path d="M501.333 416H437.333C431.442 416 426.666 411.224 426.666 405.333C426.557 403.463 425.945 401.658 424.895 400.106C422.898 396.747 422.898 392.564 424.895 389.205C425.941 387.66 426.553 385.862 426.666 384C426.666 378.109 421.89 373.333 415.999 373.333C410.108 373.333 405.332 378.109 405.332 384C405.441 385.87 406.053 387.675 407.103 389.227C409.1 392.586 409.1 396.769 407.103 400.128C406.057 401.673 405.445 403.471 405.332 405.333C405.332 411.224 400.556 416 394.665 416H330.665C324.774 416 319.998 411.224 319.998 405.333C319.889 403.463 319.277 401.658 318.227 400.106C316.23 396.747 316.23 392.564 318.227 389.205C319.273 387.66 319.885 385.862 319.998 384C319.998 378.109 315.222 373.333 309.331 373.333C303.44 373.333 298.664 378.109 298.664 384C298.773 385.87 299.385 387.675 300.435 389.227C302.432 392.586 302.432 396.769 300.435 400.128C299.389 401.673 298.777 403.471 298.664 405.333C298.664 411.224 293.888 416 287.997 416H223.997C218.106 416 213.33 411.224 213.33 405.333C213.221 403.463 212.609 401.658 211.559 400.106C209.562 396.747 209.562 392.564 211.559 389.205C212.605 387.66 213.217 385.862 213.33 384C213.33 378.109 208.554 373.333 202.663 373.333C196.772 373.333 192 378.109 192 384C192.109 385.87 192.721 387.675 193.771 389.227C195.768 392.586 195.768 396.769 193.771 400.128C192.725 401.673 192.113 403.471 192 405.333C192 411.224 187.224 416 181.333 416H117.333C111.442 416 106.666 411.224 106.666 405.333C106.557 403.463 105.945 401.658 104.895 400.106C102.898 396.747 102.898 392.564 104.895 389.205C105.941 387.66 106.553 385.862 106.666 384C106.666 378.109 101.89 373.333 95.999 373.333C90.108 373.333 85.332 378.109 85.332 384C85.441 385.87 86.053 387.675 87.103 389.227C89.1 392.586 89.1 396.769 87.103 400.128C86.057 401.673 85.445 403.471 85.332 405.333C85.332 411.224 80.556 416 74.665 416H10.665C4.776 416 0 411.224 0 405.333V106.667C0 100.776 4.776 96 10.667 96H501.334C507.225 96 512.001 100.776 512.001 106.667V405.334C512 411.224 507.224 416 501.333 416ZM445.867 394.667H490.667V117.333H21.333V394.666H66.133C64.754 391.278 64.03 387.659 64 384C64 366.327 78.327 352 96 352C113.673 352 128 366.327 128 384C127.97 387.659 127.246 391.278 125.867 394.667H172.8C171.42 391.278 170.696 387.659 170.667 384C170.667 366.327 184.994 352 202.667 352C220.34 352 234.667 366.327 234.667 384C234.637 387.659 233.913 391.278 232.534 394.667H279.467C278.087 391.278 277.363 387.659 277.334 384C277.334 366.327 291.661 352 309.334 352C327.007 352 341.334 366.327 341.334 384C341.304 387.659 340.58 391.278 339.201 394.667H386.134C384.754 391.278 384.03 387.659 384.001 384C384.001 366.327 398.328 352 416.001 352C433.674 352 448.001 366.327 448.001 384C447.97 387.659 447.246 391.278 445.867 394.667Z" fill="black"/>
</g>
<defs>
<clipPath id="clip0">
<rect width="512" height="512" fill="white"/>
</clipPath>
</defs>
</svg>
