<svg width="512" height="512" viewBox="0 0 512 512" fill="none" xmlns="http://www.w3.org/2000/svg">
<path d="M487.59 3.5C485.562 1.28125 482.684 0 479.676 0H31.6758C28.668 0 25.7891 1.28125 23.7617 3.5C21.7578 5.76172 20.7539 8.72656 21.0508 11.7344L63.7188 438.398C64.1445 442.582 66.9609 446.121 70.9492 447.465L262.949 511.465C264.059 511.809 265.211 512 266.344 512C267.621 512 268.883 511.766 270.098 511.316L440.766 447.316C444.562 445.91 447.227 442.434 447.633 438.398L490.301 11.7344C490.598 8.72656 489.598 5.76172 487.59 3.5V3.5Z" fill="#2196F3"/>
<path d="M266.344 512C265.211 512 264.059 511.828 262.973 511.445L70.9728 447.445C66.9845 446.121 64.1446 442.559 63.7384 438.398L21.0743 11.7344C20.754 8.72656 21.7579 5.73828 23.7618 3.51953C25.7892 1.28125 28.6681 0 31.6759 0H479.676C482.684 0 485.563 1.28125 487.59 3.51953C489.617 5.73828 490.598 8.74609 490.301 11.7344L447.633 438.398C447.227 442.434 444.563 445.91 440.766 447.316L270.098 511.316C268.883 511.766 267.621 512 266.344 512V512ZM84.2618 429.398L266.129 490.027L427.047 429.676L467.879 21.332H43.4728L84.2618 429.398Z" fill="black"/>
<path d="M266.344 405.332C265.211 405.332 264.059 405.164 262.973 404.777L166.973 372.777C163.344 371.562 160.637 368.512 159.891 364.758L149.223 311.426C148.07 305.645 151.824 300.031 157.586 298.879C163.41 297.645 169 301.461 170.129 307.242L179.578 354.496L266.129 383.359L342.203 354.836L381.672 128H138.344C132.453 128 127.676 123.223 127.676 117.332C127.676 111.445 132.453 106.668 138.344 106.668H394.344C397.48 106.668 400.488 108.055 402.512 110.465C404.539 112.875 405.395 116.055 404.859 119.148L362.191 364.48C361.555 368.215 358.973 371.309 355.43 372.652L270.098 404.652C268.883 405.098 267.621 405.332 266.344 405.332V405.332Z" fill="black"/>
<path d="M373.008 234.668H149.008C143.121 234.668 138.344 229.887 138.344 224C138.344 218.113 143.121 213.332 149.008 213.332H373.008C378.898 213.332 383.676 218.113 383.676 224C383.676 229.887 378.898 234.668 373.008 234.668V234.668Z" fill="black"/>
</svg>
