<svg width="512" height="512" viewBox="0 0 512 512" fill="none" xmlns="http://www.w3.org/2000/svg">
<g clip-path="url(#clip0)">
<path d="M495.75 351.054C485.287 361.494 471.107 367.327 456.348 367.304H55.653C40.894 367.326 26.714 361.494 16.251 351.054L197.9 169.406L228.62 191.667C244.893 203.688 267.109 203.688 283.382 191.667L314.102 169.406L495.75 351.054Z" fill="#FFA000"/>
<path d="M501.315 34.06L314.101 169.406L283.381 191.667C267.108 203.688 244.892 203.688 228.619 191.667L197.899 169.406L10.463 34.282C20.881 19.701 37.733 11.064 55.653 11.131H456.349C474.135 11.153 490.853 19.679 501.315 34.06Z" fill="#FFD54F"/>
<path d="M10.463 34.2821L197.9 169.406L16.251 351.054C5.81003 340.592 -0.0219731 326.434 2.6856e-05 311.653V66.7831C-0.0439731 55.1181 3.60703 43.7211 10.463 34.2821Z" fill="#FFC107"/>
<path d="M512 66.7831V311.653C512.022 326.412 506.19 340.592 495.75 351.055L314.101 169.406L501.315 34.0601C508.261 43.5651 512 55.0071 512 66.7831Z" fill="#FFC107"/>
<path d="M375.185 303.772L330.663 259.25C326.322 254.909 319.265 254.909 314.925 259.25L270.403 303.772C266.062 308.113 266.062 315.17 270.403 319.51L314.925 364.032C319.266 368.373 326.323 368.373 330.663 364.032L375.185 319.51C379.526 315.17 379.526 308.113 375.185 303.772Z" fill="#455A64"/>
<path d="M330.663 348.294L286.141 303.772C281.8 299.431 274.743 299.431 270.403 303.772L136.838 437.337C134.745 439.43 133.566 442.257 133.566 445.217V489.739C133.566 495.883 138.552 500.869 144.696 500.869H189.218C192.179 500.869 195.006 499.711 197.098 497.619L330.663 364.054C335.026 359.714 335.026 352.657 330.663 348.294C330.663 348.294 330.686 348.316 330.663 348.294Z" fill="#607D8B"/>
<path d="M456.348 367.305H367.305C361.161 367.305 356.175 362.319 356.175 356.175C356.175 350.031 361.161 345.045 367.305 345.045H456.348C474.758 345.045 489.739 330.063 489.739 311.654V66.783C489.739 48.373 474.757 33.392 456.348 33.392H55.653C37.243 33.392 22.262 48.374 22.262 66.783V311.653C22.262 330.063 37.244 345.044 55.653 345.044H144.696C150.84 345.044 155.826 350.03 155.826 356.174C155.826 362.318 150.84 367.304 144.696 367.304H55.653C24.977 367.305 0 342.35 0 311.653V66.783C0 36.108 24.977 11.131 55.652 11.131H456.348C487.046 11.131 512 36.108 512 66.783V311.653C512 342.35 487.046 367.305 456.348 367.305Z" fill="black"/>
<path d="M256.023 211.813C244.113 211.813 232.204 208.095 222.031 200.66L49.152 75.799C44.143 72.215 43.03 65.247 46.637 60.283C50.221 55.274 57.166 54.161 62.175 57.768L235.142 182.674C247.675 191.823 264.393 191.823 276.837 182.719L449.826 57.769C454.812 54.14 461.758 55.254 465.364 60.262C468.97 65.248 467.835 72.216 462.871 75.8L289.904 200.704C279.797 208.117 267.91 211.813 256.023 211.813Z" fill="black"/>
<path d="M55.653 322.783C52.804 322.783 49.954 321.692 47.773 319.533C43.432 315.192 43.432 308.135 47.773 303.795L159.077 192.49C163.418 188.149 170.475 188.149 174.815 192.49C179.156 196.831 179.156 203.888 174.815 208.228L63.511 319.533C61.351 321.692 58.502 322.783 55.653 322.783Z" fill="black"/>
<path d="M456.348 322.783C453.499 322.783 450.649 321.692 448.468 319.533L337.164 208.229C332.823 203.888 332.823 196.831 337.164 192.491C341.505 188.15 348.562 188.15 352.902 192.491L464.206 303.795C468.547 308.136 468.547 315.193 464.206 319.533C462.047 321.692 459.198 322.783 456.348 322.783Z" fill="black"/>
<path d="M189.218 500.87H144.696C138.552 500.87 133.566 495.884 133.566 489.74V445.218C133.566 442.257 134.746 439.43 136.816 437.338L314.903 259.251C319.244 254.91 326.301 254.91 330.641 259.251L375.163 303.773C379.504 308.114 379.504 315.171 375.163 319.511L197.076 497.598C195.006 499.69 192.178 500.87 189.218 500.87ZM155.826 478.609H184.609L351.566 311.652L322.783 282.869L155.826 449.826V478.609Z" fill="black"/>
<path d="M322.783 367.305C319.934 367.305 317.084 366.214 314.903 364.055L270.381 319.533C266.04 315.192 266.04 308.135 270.381 303.795C274.722 299.454 281.779 299.454 286.119 303.795L330.641 348.317C334.982 352.658 334.982 359.715 330.641 364.055C328.482 366.214 325.632 367.305 322.783 367.305Z" fill="black"/>
</g>
<defs>
<clipPath id="clip0">
<rect width="512" height="512" fill="white"/>
</clipPath>
</defs>
</svg>
