<svg width="512" height="512" viewBox="0 0 512 512" fill="none" xmlns="http://www.w3.org/2000/svg">
<g clip-path="url(#clip0)">
<path d="M501.315 34.048L314.101 169.395L283.381 191.656C267.108 203.677 244.892 203.677 228.619 191.656L197.899 169.395L10.463 34.271C20.881 19.69 37.733 11.053 55.653 11.12H456.349C474.135 11.12 490.853 19.646 501.315 34.048Z" fill="#FFD54F"/>
<path d="M10.463 34.271L197.9 169.395L16.251 351.043C5.81003 340.581 -0.0219731 326.4 2.6856e-05 311.641V66.772C-0.0439731 55.085 3.60703 43.71 10.463 34.271Z" fill="#FFC107"/>
<path d="M512 66.772V311.642C512.022 326.401 506.19 340.581 495.75 351.044L314.101 169.395L501.315 34.048C508.261 43.532 512 54.996 512 66.772Z" fill="#FFC107"/>
<path d="M333.913 411.815C319.132 411.815 311.652 400.685 311.652 378.424C312.008 347.326 287.098 321.815 256 321.458C224.902 321.101 199.391 346.012 199.034 377.11C198.678 408.208 223.588 433.719 254.686 434.076C271.359 434.276 287.254 427.064 298.095 414.42C305.486 427.086 319.265 434.655 333.913 434.076C378.435 434.076 378.435 392.181 378.435 378.424C378.435 310.795 323.629 255.989 256 255.989C188.371 255.989 133.565 310.795 133.565 378.402C133.565 446.009 188.372 500.837 256 500.837C287.766 500.837 318.286 488.482 341.126 466.399C345.556 462.103 345.645 455.024 341.349 450.616C337.053 446.186 329.974 446.097 325.544 450.393C285.719 488.793 222.298 487.658 183.898 447.833C145.498 408.008 146.633 344.587 186.458 306.187C226.283 267.787 289.704 268.922 328.104 308.747C346.135 327.446 356.197 352.423 356.175 378.401C356.174 403.379 350.565 411.815 333.913 411.815ZM256 411.815C237.568 411.815 222.609 396.856 222.609 378.424C222.609 359.992 237.568 345.033 256 345.033C274.432 345.033 289.391 359.97 289.391 378.424C289.392 396.878 274.432 411.815 256 411.815Z" fill="#455A64"/>
<path d="M314.101 169.395L283.381 191.656C267.108 203.677 244.892 203.677 228.619 191.656L197.899 169.395L16.251 351.043C26.714 361.483 40.894 367.316 55.653 367.293H111.862C117.895 287.688 187.304 228.051 266.887 234.062C338.122 239.449 394.731 296.059 400.118 367.293H456.349C471.108 367.315 485.288 361.483 495.751 351.043L314.101 169.395Z" fill="#FFA000"/>
<path d="M456.348 367.294H411.826C405.682 367.294 400.696 362.308 400.696 356.164C400.696 350.02 405.682 345.034 411.826 345.034H456.348C474.758 345.034 489.739 330.052 489.739 311.643V66.772C489.739 48.362 474.757 33.381 456.348 33.381H55.653C37.243 33.381 22.262 48.34 22.262 66.772V311.642C22.262 330.052 37.244 345.033 55.653 345.033H100.175C106.319 345.033 111.305 349.997 111.305 356.163C111.305 362.329 106.319 367.293 100.175 367.293H55.653C24.977 367.294 0 342.317 0 311.641V66.772C0 36.096 24.977 11.12 55.653 11.12H456.349C487.046 11.12 512 36.074 512 66.772V311.642C512 342.317 487.046 367.294 456.348 367.294Z" fill="black"/>
<path d="M256.023 211.801C244.113 211.801 232.204 208.083 222.031 200.648L49.152 75.788C44.143 72.182 43.03 65.236 46.637 60.25C50.221 55.241 57.166 54.128 62.175 57.735L235.142 182.64C247.675 191.789 264.393 191.789 276.837 182.685L449.826 57.735C454.812 54.151 461.758 55.242 465.364 60.228C468.97 65.214 467.835 72.182 462.871 75.766L289.904 200.671C279.797 208.084 267.91 211.801 256.023 211.801Z" fill="black"/>
<path d="M55.653 322.772C52.804 322.772 49.954 321.681 47.773 319.522C43.432 315.181 43.432 308.124 47.773 303.784L159.077 192.48C163.418 188.139 170.475 188.139 174.815 192.48C179.156 196.821 179.156 203.878 174.815 208.218L63.511 319.522C61.351 321.681 58.502 322.772 55.653 322.772Z" fill="black"/>
<path d="M456.348 322.772C453.499 322.772 450.649 321.681 448.468 319.522L337.164 208.217C332.823 203.876 332.823 196.819 337.164 192.479C341.505 188.138 348.562 188.138 352.902 192.479L464.206 303.783C468.547 308.124 468.547 315.181 464.206 319.521C462.047 321.681 459.198 322.772 456.348 322.772Z" fill="black"/>
<path d="M256.067 500.881C255.377 500.881 254.687 500.881 253.997 500.859C221.296 500.325 190.776 487.08 168.026 463.572C121.078 415.043 122.369 337.397 170.875 290.471C194.382 267.72 225.859 255.477 258.026 256.033C290.705 256.567 321.247 269.812 343.997 293.298C366.191 316.249 378.435 346.479 378.435 378.424C378.435 384.568 373.449 389.554 367.305 389.554C361.161 389.554 356.175 384.568 356.175 378.424C356.175 352.29 346.158 327.558 327.97 308.77C309.36 289.559 284.383 278.718 257.626 278.273C231.403 278.273 205.558 287.867 186.324 306.478C146.633 344.878 145.587 408.411 184.009 448.102C202.619 467.335 227.596 478.176 254.353 478.599C281.2 479.534 306.399 469.027 325.655 450.417C330.063 446.165 337.119 446.254 341.393 450.684C345.667 455.114 345.556 462.148 341.126 466.422C318.13 488.682 288.012 500.881 256.067 500.881Z" fill="black"/>
<path d="M256 434.076C225.325 434.076 200.348 409.099 200.348 378.424C200.348 347.749 225.325 322.772 256 322.772C286.675 322.772 311.652 347.726 311.652 378.424C311.652 409.122 286.676 434.076 256 434.076ZM256 345.033C237.59 345.033 222.609 360.015 222.609 378.424C222.609 396.834 237.591 411.815 256 411.815C274.409 411.815 289.391 396.833 289.391 378.424C289.392 360.014 274.41 345.033 256 345.033Z" fill="black"/>
<path d="M333.913 434.076C306.042 434.076 289.391 413.262 289.391 378.424C289.391 372.28 294.377 367.294 300.521 367.294C306.665 367.294 311.651 372.258 311.651 378.424C311.651 400.574 319.153 411.815 333.912 411.815C350.563 411.815 356.173 403.378 356.173 378.424C356.173 372.28 361.159 367.294 367.303 367.294C373.447 367.294 378.433 372.258 378.433 378.424C378.435 392.181 378.435 434.076 333.913 434.076Z" fill="black"/>
</g>
<defs>
<clipPath id="clip0">
<rect width="512" height="512" fill="white"/>
</clipPath>
</defs>
</svg>
