<svg width="512" height="512" viewBox="0 0 512 512" fill="none" xmlns="http://www.w3.org/2000/svg">
<path d="M487.59 3.5C485.562 1.28125 482.684 0 479.676 0H31.6758C28.668 0 25.7891 1.28125 23.7617 3.5C21.7578 5.76172 20.7539 8.72656 21.0508 11.7344L63.7188 438.398C64.1445 442.582 66.9609 446.121 70.9492 447.465L262.949 511.465C264.059 511.809 265.211 512 266.344 512C267.621 512 268.883 511.766 270.098 511.316L440.766 447.316C444.562 445.91 447.227 442.434 447.633 438.398L490.301 11.7344C490.598 8.72656 489.598 5.76172 487.59 3.5V3.5Z" fill="#FF9800"/>
<path d="M266.344 512C265.211 512 264.059 511.809 262.973 511.465L70.9728 447.465C66.9845 446.145 64.1446 442.582 63.7384 438.398L21.0743 11.7344C20.754 8.72656 21.7579 5.76172 23.7618 3.5C25.7892 1.28125 28.6681 0 31.6759 0H479.676C482.684 0 485.563 1.28125 487.59 3.5C489.617 5.73828 490.598 8.72656 490.301 11.7344L447.633 438.398C447.227 442.434 444.563 445.91 440.766 447.316L270.098 511.316C268.883 511.766 267.621 512 266.344 512V512ZM84.2618 429.398L266.129 490.027L427.047 429.676L467.879 21.332H43.4728L84.2618 429.398Z" fill="black"/>
<path d="M266.344 405.332C265.211 405.332 264.059 405.141 262.973 404.801L166.973 372.801C163.344 371.586 160.637 368.535 159.891 364.758L149.223 311.426C148.07 305.645 151.824 300.031 157.586 298.879C163.453 297.621 169 301.461 170.129 307.266L179.578 354.516L266.129 383.383L342.074 354.902L360.57 234.668H149.008C143.527 234.668 138.941 230.527 138.387 225.066L127.719 118.398C127.418 115.391 128.422 112.426 130.43 110.164C132.453 107.945 135.336 106.668 138.344 106.668H394.344C400.23 106.668 405.008 111.445 405.008 117.332C405.008 123.223 400.23 128 394.344 128H150.141L158.672 213.332H373.008C376.125 213.332 379.09 214.676 381.094 217.066C383.121 219.414 384.016 222.551 383.547 225.621L362.215 364.289C361.637 368.105 359.035 371.285 355.43 372.652L270.098 404.652C268.883 405.098 267.621 405.332 266.344 405.332Z" fill="black"/>
</svg>
