<svg width="470" height="512" viewBox="0 0 470 512" fill="none" xmlns="http://www.w3.org/2000/svg">
<path d="M245.344 512C244.211 512 243.059 511.809 241.973 511.465L49.9728 447.465C45.9845 446.145 43.1446 442.582 42.7384 438.398L0.0743216 11.7344C-0.245991 8.72656 0.757915 5.76172 2.76182 3.5C4.78916 1.28125 7.66807 0 10.6759 0H458.676C461.684 0 464.563 1.28125 466.59 3.5C468.617 5.73828 469.598 8.72656 469.301 11.7344L426.633 438.398C426.227 442.434 423.563 445.91 419.766 447.316L249.098 511.316C247.883 511.766 246.621 512 245.344 512V512ZM63.2618 429.398L245.129 490.027L406.047 429.676L446.879 21.332H22.4728L63.2618 429.398Z" fill="black"/>
</svg>
