<svg width="512" height="512" viewBox="0 0 512 512" fill="none" xmlns="http://www.w3.org/2000/svg">
<path d="M487.578 3.5C485.551 1.28125 482.691 0 479.664 0H31.664C28.6327 0 25.7733 1.28125 23.746 3.5C21.7226 5.76172 20.7382 8.72656 21.0585 11.7344L63.7265 438.398C64.1523 442.582 66.9687 446.121 70.9569 447.465L262.957 511.465C264.066 511.809 265.176 512 266.328 512C267.609 512 268.867 511.766 270.082 511.316L440.75 447.316C444.547 445.91 447.215 442.434 447.598 438.398L490.266 11.7344C490.586 8.72656 489.601 5.76172 487.578 3.5V3.5Z" fill="#FFC107"/>
<path d="M266.328 512C265.176 512 264.066 511.809 262.957 511.465L70.9569 447.465C66.9687 446.145 64.1523 442.582 63.7265 438.398L21.0585 11.7344C20.7382 8.72656 21.7226 5.76172 23.746 3.5C25.7733 1.28125 28.6327 0 31.664 0H479.664C482.691 0 485.551 1.28125 487.578 3.5C489.601 5.73828 490.586 8.72656 490.266 11.7344L447.598 438.398C447.191 442.434 444.527 445.91 440.75 447.316L270.082 511.316C268.867 511.766 267.609 512 266.328 512V512ZM84.2499 429.398L266.117 490.027L427.031 429.676L467.863 21.332H43.4608L84.2499 429.398Z" fill="black"/>
<path d="M287.664 394.668C283.203 394.668 279.043 391.828 277.527 387.371C275.672 381.781 278.703 375.742 284.27 373.867L342.277 354.539L360.219 256H287.664C281.773 256 276.996 251.223 276.996 245.332V117.332C276.996 111.445 281.773 106.668 287.664 106.668H394.328C397.613 106.668 400.731 108.18 402.754 110.762C404.781 113.344 405.484 116.715 404.695 119.914L394.031 162.582C392.602 168.297 386.883 171.711 381.102 170.348C375.363 168.918 371.906 163.113 373.336 157.418L380.652 128H298.328V234.668H372.996C376.152 234.668 379.16 236.055 381.188 238.508C383.215 240.918 384.066 244.137 383.492 247.254L362.156 364.586C361.453 368.426 358.723 371.563 355.031 372.801L291.031 394.133C289.902 394.496 288.793 394.668 287.664 394.668V394.668Z" fill="black"/>
<path d="M244.996 394.668C244.016 394.668 243.031 394.539 242.051 394.238L167.387 372.906C163.543 371.82 160.664 368.66 159.855 364.734L149.188 311.402C148.016 305.621 151.77 300.012 157.57 298.859C163.055 297.645 168.941 301.418 170.117 307.242L179.504 354.176L234.328 369.855V128H116.996C111.109 128 106.328 123.223 106.328 117.332C106.328 111.445 111.109 106.668 116.996 106.668H244.996C250.883 106.668 255.664 111.445 255.664 117.332V384C255.664 387.348 254.105 390.508 251.418 392.512C249.539 393.941 247.277 394.668 244.996 394.668V394.668Z" fill="black"/>
</svg>
