<svg width="512" height="512" viewBox="0 0 512 512" fill="none" xmlns="http://www.w3.org/2000/svg">
<g clip-path="url(#clip0)">
<path d="M440.725 30.2293H71.2747C37.312 30.2293 9.70667 57.856 9.70667 91.7973V420.203C9.70667 454.165 37.3333 481.771 71.2747 481.771H440.725C474.688 481.771 502.293 454.144 502.293 420.203V91.7973C502.293 57.8347 474.688 30.2293 440.725 30.2293V30.2293Z" fill="#607D8B"/>
<path d="M472 474.667H40C26.7733 474.667 16 463.829 16 450.496V112H496V450.496C496 463.829 485.227 474.667 472 474.667Z" fill="white"/>
<path d="M453.333 490.667H58.6667C26.304 490.667 0 464.363 0 432V80C0 47.6373 26.304 21.3333 58.6667 21.3333H453.333C485.696 21.3333 512 47.6373 512 80V432C512 464.363 485.696 490.667 453.333 490.667ZM58.6667 53.3333C43.968 53.3333 32 65.3013 32 80V432C32 446.699 43.968 458.667 58.6667 458.667H453.333C468.032 458.667 480 446.699 480 432V80C480 65.3013 468.032 53.3333 453.333 53.3333H58.6667Z" fill="black"/>
<path d="M496 128H16C7.168 128 0 120.832 0 112C0 103.168 7.168 96 16 96H496C504.832 96 512 103.168 512 112C512 120.832 504.832 128 496 128Z" fill="black"/>
<path d="M325.333 352C321.643 352 317.952 350.741 314.923 348.139C308.224 342.379 307.435 332.288 313.195 325.568L336.256 298.667L313.173 271.744C307.413 265.045 308.203 254.933 314.901 249.173C321.643 243.413 331.733 244.203 337.472 250.901L369.472 288.235C374.613 294.229 374.613 303.061 369.472 309.077L337.472 346.411C334.315 350.101 329.835 352 325.333 352Z" fill="black"/>
<path d="M186.667 352C182.165 352 177.685 350.101 174.507 346.411L142.507 309.077C137.365 303.083 137.365 294.251 142.507 288.235L174.507 250.901C180.267 244.203 190.357 243.392 197.077 249.173C203.776 254.933 204.565 265.024 198.805 271.744L175.744 298.667L198.827 325.589C204.587 332.288 203.797 342.4 197.099 348.16C194.069 350.72 190.357 352 186.667 352Z" fill="black"/>
<path d="M240 384C238.805 384 237.611 383.872 236.395 383.595C227.776 381.611 222.421 373.013 224.384 364.416L256.384 225.749C258.368 217.152 266.965 211.84 275.563 213.739C284.181 215.723 289.536 224.32 287.573 232.917L255.573 371.584C253.888 379.008 247.296 384 240 384V384Z" fill="black"/>
</g>
<defs>
<clipPath id="clip0">
<rect width="512" height="512" fill="white"/>
</clipPath>
</defs>
</svg>
