<svg width="512" height="512" viewBox="0 0 512 512" fill="none" xmlns="http://www.w3.org/2000/svg">
<path d="M256 512C397.385 512 512 397.385 512 256C512 114.615 397.385 0 256 0C114.615 0 0 114.615 0 256C0 397.385 114.615 512 256 512Z" fill="#039BE5"/>
<path d="M160 288L96 247.189L373.333 138.667L330.667 373.333L245.333 330.667L202.667 373.333V309.333L272.661 239.339L160 288Z" fill="white"/>
<path d="M256 512C397.163 512 512 397.163 512 256C512 114.837 397.163 0 256 0C114.837 0 0 114.837 0 256C0 397.163 114.837 512 256 512ZM256 32C379.52 32 480 132.48 480 256C480 379.52 379.52 480 256 480C132.48 480 32 379.52 32 256C32 132.48 132.48 32 256 32Z" fill="black"/>
<path d="M168.448 301.973L201.899 287.445L192.512 296.853C189.504 299.861 187.819 303.936 187.819 308.16V370.773C187.819 385.109 205.141 392.064 215.125 382.08L248.704 348.501L321.877 385.088C331.349 389.824 342.805 384.213 344.768 373.632L386.517 144.064C388.715 131.712 376.555 121.728 364.928 126.293L93.6533 232.469C81.4933 237.205 79.872 253.845 90.88 260.864L153.472 300.8C157.952 303.659 163.605 304.107 168.448 301.973V301.973ZM349.909 166.571L317.12 346.944L252.693 314.752C246.464 311.637 239.04 312.939 234.24 317.76L219.819 332.181V314.837L283.968 250.688C296.405 238.251 282.411 217.728 266.283 224.704L163.52 269.291L134.635 250.859L349.909 166.571Z" fill="black"/>
</svg>
