<svg width="512" height="512" viewBox="0 0 512 512" fill="none" xmlns="http://www.w3.org/2000/svg">
<g clip-path="url(#clip0)">
<path d="M376.384 486.4H207.893C199.936 486.4 193.493 479.957 193.493 472V416.32L154.816 428.117C151.445 429.333 147.051 430.059 142.379 430.059C118.955 430.059 99.8826 410.944 99.8826 387.477V336.149H67.4986C54.3999 336.149 43.7333 325.461 43.7333 312.363C43.7333 307.947 45.0133 303.552 47.4026 299.691L91.1573 229.995C96.8533 220.907 99.8826 210.432 99.8826 199.723C99.8826 103.701 177.728 25.6 273.408 25.6C369.088 25.6 446.912 103.68 446.912 199.659C446.912 235.584 435.989 270.144 415.381 299.605C399.275 322.603 390.763 349.589 390.763 377.6V472C390.784 479.957 384.32 486.4 376.384 486.4V486.4Z" fill="#607D8B"/>
<path d="M390.933 512H203.733C194.901 512 187.733 504.832 187.733 496V434.133L144.747 447.232C140.992 448.576 136.128 449.408 130.944 449.408C104.917 449.408 83.7334 428.181 83.7334 402.091V345.045H47.7227C33.1734 345.045 21.3334 333.184 21.3334 318.613C21.3334 313.707 22.7414 308.843 25.408 304.533L74.0267 227.093C80.3627 216.981 83.712 205.355 83.712 193.451C83.7334 86.7627 170.219 0 276.544 0C382.869 0 469.333 86.7627 469.333 193.387C469.333 233.301 457.216 271.701 434.283 304.448C416.384 330.005 406.933 359.979 406.933 391.104V496C406.933 504.832 399.765 512 390.933 512V512ZM219.733 480H374.933V391.104C374.933 353.365 386.389 317.056 408.085 286.101C427.2 258.773 437.333 226.709 437.333 193.387C437.333 104.405 365.205 32 276.544 32C187.883 32 115.733 104.405 115.733 193.387C115.733 211.371 110.699 228.885 101.141 244.096L57.856 313.024H99.7334C108.565 313.024 115.733 320.192 115.733 329.024V402.069C115.733 410.517 122.539 417.387 130.944 417.387C132.437 417.387 133.717 417.216 134.72 416.853L199.083 397.227C203.925 395.755 209.195 396.651 213.269 399.68C217.344 402.688 219.755 407.467 219.755 412.544V480H219.733Z" fill="black"/>
<path d="M261.355 277.333C260.139 277.333 258.944 277.205 257.728 276.928C249.131 274.944 243.755 266.347 245.739 257.749L277.739 119.083C279.723 110.443 288.448 105.173 296.917 107.072C305.515 109.056 310.891 117.653 308.907 126.251L276.907 264.917C275.2 272.341 268.629 277.333 261.355 277.333V277.333Z" fill="black"/>
<path d="M346.667 256C342.293 256 337.941 254.229 334.763 250.709C328.853 244.139 329.387 234.027 335.957 228.096L376.085 192L335.957 155.904C329.387 149.995 328.853 139.883 334.763 133.291C340.693 126.741 350.784 126.208 357.376 132.096L410.709 180.096C414.08 183.147 416 187.477 416 192C416 196.523 414.08 200.853 410.709 203.904L357.376 251.904C354.304 254.656 350.485 256 346.667 256Z" fill="black"/>
<path d="M208 256C204.181 256 200.363 254.656 197.291 251.904L143.957 203.904C140.587 200.853 138.667 196.523 138.667 192C138.667 187.477 140.587 183.147 143.957 180.096L197.291 132.096C203.861 126.187 213.931 126.72 219.904 133.291C225.813 139.861 225.28 149.973 218.709 155.904L178.581 192L218.709 228.096C225.28 234.005 225.813 244.117 219.904 250.709C216.725 254.229 212.373 256 208 256Z" fill="black"/>
</g>
<defs>
<clipPath id="clip0">
<rect width="512" height="512" fill="white"/>
</clipPath>
</defs>
</svg>
