<svg width="512" height="512" viewBox="0 0 512 512" fill="none" xmlns="http://www.w3.org/2000/svg">
<path d="M450.923 157.099C470.869 143.083 488.128 110.421 495.616 87.0827C476.181 98.56 446.72 85.6533 423.851 90.1973C354.176 16.704 229.44 81.728 252.181 180.992C168.555 176.917 94.5493 137.259 44.8213 76.8C17.344 124.075 32.6827 181.397 75.7333 209.899C59.5627 209.6 43.7333 204.928 30.2933 197.632C30.2933 248.96 66.6027 287.616 110.891 296.576C95.5093 300.757 76.608 300.587 65.4933 298.155C78.5067 337.579 115.52 366.592 159.488 367.531C115.541 401.557 60.416 414.869 10.688 408.64C55.2533 437.077 108.053 453.333 164.992 453.333C342.336 453.333 458.197 306.88 450.923 157.099V157.099Z" fill="#55ACEE"/>
<path d="M10.0907 418.027C57.4933 448.107 112.661 464 169.621 464C253.035 464 329.472 431.957 384.875 373.781C437.888 318.101 467.051 243.285 465.6 167.36C485.696 150.165 509.333 117.333 509.333 85.3333C509.333 73.0667 496.021 65.28 485.227 71.5307C466.347 82.624 449.131 85.5253 431.424 80.5547C395.264 45.312 341.44 37.888 296.085 62.336C256.448 83.6693 234.411 122.709 236.395 165.376C169.429 157.205 107.563 123.627 64.4267 71.4453C57.344 62.9333 43.904 63.936 38.272 73.5787C17.4933 109.163 17.7067 150.4 35.776 183.701C27.1787 185.216 21.8667 192.448 21.8667 200.277C21.8667 233.749 36.928 264.512 61.184 285.504C56.6613 289.856 55.168 296.32 57.088 302.08C67.7547 334.123 91.904 359.168 122.091 371.712C89.2587 387.392 52.9493 392.619 20.6293 388.651C3.904 386.389 -4.352 408.875 10.0907 418.027V418.027ZM173.995 377.195C185.963 368 179.605 348.843 164.587 348.523C138.133 347.968 114.048 334.933 99.0507 314.432C106.283 313.963 113.771 312.853 120.896 310.933C137.131 306.539 136.363 283.115 119.872 279.808C89.9413 273.792 66.4533 251.989 57.6427 223.915C65.6853 225.899 73.8773 227.008 82.048 227.157C98.24 227.243 104.363 206.485 91.1573 197.803C61.3973 178.197 48.704 143.573 57.1093 111.019C109.077 163.669 179.584 195.392 254.165 198.976C264.853 199.637 272.875 189.589 270.528 179.413C260.395 135.488 284.928 104.704 311.275 90.5173C337.344 76.4373 379.2 72.0427 411.285 105.707C420.821 115.755 452.992 116.139 469.355 112.32C462.016 126.144 450.731 139.264 440.171 146.645C435.669 149.803 433.088 155.051 433.365 160.533C436.8 230.613 410.688 300.288 361.728 351.68C312.405 403.456 244.203 431.979 169.643 431.979C139.989 431.979 110.912 427.157 83.4347 417.856C116.288 411.499 147.499 397.589 173.995 377.195V377.195Z" fill="black"/>
</svg>
